# xmcd
#
# Track frame offsets:
#	150
#	30650
#	51619
#	74100
#	99335
#	118225
#	152262
#	165347
#
# Disc length: 2550 seconds
#
# Revision: 0
# Processed by: cddbd v1.5.2PL0 Copyright (c) Steve Scherf et al.
# Submitted via: EasyCDDAExtractor 16.0.8.2
#
DISCID=6709f408
DTITLE=Συλλογικός δίσκος - Στις θάλασσες της Ιωνίας 2
DYEAR=1995
DGENRE=Παραδοσιακή
TTITLE0=Γράψας Νίκος - Ανάθεμα τον αίτιο [Μυτιλήνη]
TTITLE1=Γράψας Νίκος-Μοράβας Γιάννης - Ζεϊμπέκικο του δρόμου [Μ. Ασία]
TTITLE2=Μοράβας Γιάννης-Γράψας Νίκος - Οι κοντραμπατζήδες [Δωδεκάνησα]
TTITLE3=Γράψας Νίκος-Μοράβας Γιάννης - Πάλι περνώ το το στενό [Δωδεκάνησα]
TTITLE4=Γράψας Νίκος-Μοράβας Γιάννης - Πέρα στους πέρα κάμπους [Δωδεκάνησα]
TTITLE5=Γράψας Νίκος-Μοράβας Γιάννης - Αρχαγγελίτικος [Δωδεκάνησα]
TTITLE6=Άνευ ερμηνευτού - Μαζεμένος [Μυτιλήνη]
TTITLE7=Γράψας Νίκος - Λέρικο έρι [Κάλυμνος]
EXTD=
EXTT0=
EXTT1=
EXTT2=
EXTT3=
EXTT4=
EXTT5=
EXTT6=
EXTT7=
PLAYORDER=
